Coordinates
version=1
nRows=13
nColumns=30
inDegrees=yes

Units are S.I. units (second, meters, Newtons, ...)
Angles are in degrees.

endheader
time	floatyaw	floatroll	floatpitch	floatx	floaty	floatz	pro_sup_l	deviation_l	flexion_l	cmc_flexion_l	cmc_abduction_l	mp_flexion_l	ip_flexion_l	2mcp_flexion_l	2mcp_abduction_l	2pm_flexion_l	2md_flexion_l	3mcp_flexion_l	3mcp_abduction_l	3pm_flexion_l	3md_flexion_l	4mcp_flexion_l	4mcp_abduction_l	4pm_flexion_l	4md_flexion_l	5mcp_flexion_l	5mcp_abduction_l	5pm_flexion_l	5md_flexion_l
-1.495000	0.866899	-3.180214	97.472630	-0.107071	-0.189808	-0.033884	87.703738	0.438016	-2.081209	19.313375	2.583564	-21.437856	-34.761985	35.975897	8.915844	45.983006	32.812547	22.010617	4.857043	44.936602	30.895033	11.959256	-4.659663	59.251938	40.988395	7.371643	-9.201116	58.520811	41.649892
-1.485000	0.866899	-3.180214	97.472630	-0.107062	-0.189815	-0.033883	87.703951	0.435133	-2.088156	19.308709	2.561019	-21.437123	-34.763503	35.998651	8.909008	45.985189	32.809135	22.024305	4.859666	44.941708	30.893821	11.971198	-4.660625	59.253343	40.991180	7.374922	-9.192605	58.540964	41.659661
-1.475000	0.866899	-3.180214	97.472630	-0.107052	-0.189823	-0.033884	87.706694	0.433332	-2.095576	19.307270	2.539963	-21.434950	-34.765038	36.017519	8.903626	45.990837	32.807220	22.032722	4.864000	44.950770	30.895282	11.986873	-4.663167	59.255586	40.994972	7.383668	-9.185957	58.556993	41.666207
-1.465000	0.866899	-3.180214	97.472630	-0.107042	-0.189834	-0.033886	87.708706	0.431954	-2.103610	19.307871	2.525015	-21.432860	-34.767176	36.031541	8.900261	46.001459	32.808408	22.034688	4.869524	44.966054	30.901347	12.004691	-4.666715	59.259855	41.000617	7.396716	-9.183540	58.570250	41.669727
-1.455000	0.866899	-3.180214	97.472630	-0.107033	-0.189848	-0.033891	87.707202	0.430379	-2.112070	19.308577	2.517253	-21.431582	-34.769784	36.040777	8.898612	46.015806	32.812757	22.031770	4.875157	44.986638	30.911684	12.022121	-4.670055	59.266628	41.008383	7.411363	-9.186554	58.582487	41.671168
-1.445000	0.866899	-3.180214	97.472630	-0.107024	-0.189863	-0.033896	87.701314	0.428637	-2.120535	19.307084	2.514091	-21.430897	-34.771964	36.046272	8.897565	46.030477	32.818938	22.027623	4.879585	45.008553	30.924084	12.036551	-4.671984	59.275095	41.017795	7.423585	-9.193581	58.595534	41.672023
-1.435000	0.866899	-3.180214	97.472630	-0.107017	-0.189877	-0.033901	87.692323	0.427446	-2.128515	19.301357	2.511463	-21.429999	-34.772427	36.049764	8.895813	46.041704	32.825051	22.026271	4.881748	45.026738	30.935825	12.046405	-4.671990	59.283341	41.027779	7.429538	-9.200739	58.610788	41.673797
-1.425000	0.866899	-3.180214	97.472630	-0.107011	-0.189889	-0.033905	87.682550	0.427567	-2.135613	19.290354	2.506845	-21.428040	-34.770072	36.053125	8.892723	46.047344	32.829659	22.030297	4.881253	45.037893	30.945242	12.051885	-4.670489	59.289363	41.037111	7.427519	-9.203504	58.628645	41.677381
-1.415000	0.866899	-3.180214	97.472630	-0.107007	-0.189897	-0.033909	87.673742	0.428992	-2.141681	19.274510	2.501026	-21.424600	-34.764505	36.057763	8.888774	46.048006	32.832490	22.039923	4.878497	45.042521	30.952561	12.054808	-4.668486	59.292328	41.044973	7.418843	-9.198962	58.648417	41.682725
-1.405000	0.866899	-3.180214	97.472630	-0.107004	-0.189902	-0.033912	87.666058	0.430669	-2.146962	19.255682	2.497414	-21.419988	-34.756299	36.064357	8.885185	46.046779	32.834481	22.053307	4.874478	45.044762	30.959542	12.057546	-4.666974	59.293218	41.051309	7.406839	-9.187075	58.669090	41.689146
-1.395000	0.866899	-3.180214	97.472630	-0.107000	-0.189907	-0.033916	87.658201	0.431008	-2.152068	19.236451	2.499556	-21.415321	-34.746913	36.073004	8.883008	46.047798	32.837238	22.067592	4.870449	45.050021	30.968237	12.061701	-4.666472	59.294380	41.056792	7.394799	-9.170467	58.690452	41.696068
-1.385000	0.866899	-3.180214	97.472630	-0.106995	-0.189914	-0.033919	87.648361	0.428756	-2.157633	19.219033	2.508672	-21.412322	-34.738298	36.083474	8.882399	46.054363	32.842214	22.079929	4.867556	45.061837	30.979731	12.067317	-4.666921	59.298248	41.062436	7.384608	-9.153289	58.713480	41.703545
-1.375000	0.866899	-3.180214	97.472630	-0.106988	-0.189924	-0.033923	87.635221	0.423576	-2.163776	19.204330	2.522818	-21.412751	-34.732290	36.095283	8.882681	46.067471	32.850003	22.088019	4.866615	45.079928	30.993572	12.073053	-4.667905	59.306020	41.069092	7.377027	-9.139899	58.739362	41.712041
